<svg fill="#ff9900" height="20px" width="20px" version="1.1" id="Layer_1" xmlns="http://www.w3.org/2000/svg" xmlns:xlink="http://www.w3.org/1999/xlink" 
	 viewBox="0 0 512 512" xml:space="preserve">
	<g>
		<path d="M506.43,421.536L291.573,49.394c-15.814-27.391-55.327-27.401-71.147,0L5.568,421.536
			c-15.814,27.391,3.934,61.616,35.574,61.616h429.714C502.485,483.153,522.25,448.938,506.43,421.536z" />
		<path fill="#000000" d="M274.821,385.034c0,10.394-8.427,18.821-18.821,18.821s-18.821-8.427-18.821-18.821v-11.239
			c0-10.394,8.427-18.821,18.821-18.821s18.821,8.427,18.821,18.821V385.034z" stroke="#000000" stroke-width="32"/>
		<path fill="#000000" d="M274.821,311.702c0,10.394-8.427,18.821-18.821,18.821s-18.821-8.427-18.821-18.821v-107.89
			c0-10.394,8.427-18.821,18.821-18.821s18.821,8.427,18.821,18.821V311.702z" stroke="#000000" stroke-width="32"/>
	</g>
</svg>
