<?xml version="1.0" encoding="iso-8859-1"?>
<!DOCTYPE svg PUBLIC "-//W3C//DTD SVG 1.1//EN" "http://www.w3.org/Graphics/SVG/1.1/DTD/svg11.dtd">
<svg xmlns="http://www.w3.org/2000/svg" xmlns:xlink="http://www.w3.org/1999/xlink" 
	 width="12" height="16" viewBox="0 0 340 460">
	<path class="network-icon" fill="black"
	d="M142.34,253.962v168.443c0,13.205,10.701,23.906,23.906,23.906c13.206,0,23.906-10.701,23.906-23.906V253.962
		c11.456-4.639,21.908-12.518,30.218-23.179l97.117-124.657c15.118-19.393,19.029-40.239,10.749-57.193
		c-8.281-16.944-27.129-26.669-51.724-26.669H55.981c-24.585,0-43.442,9.725-51.724,26.669c-8.281,16.945-4.37,37.791,10.749,57.193
		l97.126,124.657C120.442,241.454,130.894,249.323,142.34,253.962z M190.153,70.084h86.36c3.117,0,5.46,0.287,7.124,0.641
		c-0.746,1.53-1.961,3.567-3.873,6.024l-89.621,115.027V70.084H190.153z M48.857,70.725c1.664-0.354,4.016-0.641,7.124-0.641h86.359
		v121.692L52.721,76.75C50.818,74.292,49.603,72.255,48.857,70.725z"
	/>
</svg>
